<?xml version="1.0" encoding="utf-8" standalone="no"?>
<!DOCTYPE svg PUBLIC "-//W3C//DTD SVG 1.1//EN"
  "http://www.w3.org/Graphics/SVG/1.1/DTD/svg11.dtd">
<svg xmlns:xlink="http://www.w3.org/1999/xlink" width="288pt" height="288pt" viewBox="0 0 288 288" xmlns="http://www.w3.org/2000/svg" version="1.1">
 <metadata>
  <rdf:RDF xmlns:dc="http://purl.org/dc/elements/1.1/" xmlns:cc="http://creativecommons.org/ns#" xmlns:rdf="http://www.w3.org/1999/02/22-rdf-syntax-ns#">
   <cc:Work>
    <dc:type rdf:resource="http://purl.org/dc/dcmitype/StillImage"/>
    <dc:date>2022-10-26T19:33:21.492217</dc:date>
    <dc:format>image/svg+xml</dc:format>
    <dc:creator>
     <cc:Agent>
      <dc:title>Matplotlib v3.5.1, https://matplotlib.org/</dc:title>
     </cc:Agent>
    </dc:creator>
   </cc:Work>
  </rdf:RDF>
 </metadata>
 <defs>
  <style type="text/css">*{stroke-linejoin: round; stroke-linecap: butt}</style>
 </defs>
 <g id="figure_1">
  <g id="patch_1">
   <path d="M 0 288 
L 288 288 
L 288 0 
L 0 0 
z
" style="fill: #ffffff"/>
  </g>
  <g id="axes_1">
   <g id="patch_2">
    <path d="M 51.84 244.8 
L 276.48 244.8 
L 276.48 25.92 
L 51.84 25.92 
z
" style="fill: #eaeaf2"/>
   </g>
   <g id="matplotlib.axis_1">
    <g id="xtick_1">
     <g id="line2d_1">
      <path d="M 62.050909 244.8 
L 62.050909 25.92 
" clip-path="url(#p0ebee0c4d9)" style="fill: none; stroke: #ffffff; stroke-linecap: round"/>
     </g>
     <g id="text_1">
      <!-- 0 -->
      <g style="fill: #262626" transform="translate(58.551534 262.658281)scale(0.11 -0.11)">
       <defs>
        <path id="DejaVuSans-30" d="M 2034 4250 
Q 1547 4250 1301 3770 
Q 1056 3291 1056 2328 
Q 1056 1369 1301 889 
Q 1547 409 2034 409 
Q 2525 409 2770 889 
Q 3016 1369 3016 2328 
Q 3016 3291 2770 3770 
Q 2525 4250 2034 4250 
z
M 2034 4750 
Q 2819 4750 3233 4129 
Q 3647 3509 3647 2328 
Q 3647 1150 3233 529 
Q 2819 -91 2034 -91 
Q 1250 -91 836 529 
Q 422 1150 422 2328 
Q 422 3509 836 4129 
Q 1250 4750 2034 4750 
z
" transform="scale(0.015625)"/>
       </defs>
       <use xlink:href="#DejaVuSans-30"/>
      </g>
     </g>
    </g>
    <g id="xtick_2">
     <g id="line2d_2">
      <path d="M 121.520607 244.8 
L 121.520607 25.92 
" clip-path="url(#p0ebee0c4d9)" style="fill: none; stroke: #ffffff; stroke-linecap: round"/>
     </g>
     <g id="text_2">
      <!-- 1 -->
      <g style="fill: #262626" transform="translate(118.021232 262.658281)scale(0.11 -0.11)">
       <defs>
        <path id="DejaVuSans-31" d="M 794 531 
L 1825 531 
L 1825 4091 
L 703 3866 
L 703 4441 
L 1819 4666 
L 2450 4666 
L 2450 531 
L 3481 531 
L 3481 0 
L 794 0 
L 794 531 
z
" transform="scale(0.015625)"/>
       </defs>
       <use xlink:href="#DejaVuSans-31"/>
      </g>
     </g>
    </g>
    <g id="xtick_3">
     <g id="line2d_3">
      <path d="M 180.990305 244.8 
L 180.990305 25.92 
" clip-path="url(#p0ebee0c4d9)" style="fill: none; stroke: #ffffff; stroke-linecap: round"/>
     </g>
     <g id="text_3">
      <!-- 2 -->
      <g style="fill: #262626" transform="translate(177.49093 262.658281)scale(0.11 -0.11)">
       <defs>
        <path id="DejaVuSans-32" d="M 1228 531 
L 3431 531 
L 3431 0 
L 469 0 
L 469 531 
Q 828 903 1448 1529 
Q 2069 2156 2228 2338 
Q 2531 2678 2651 2914 
Q 2772 3150 2772 3378 
Q 2772 3750 2511 3984 
Q 2250 4219 1831 4219 
Q 1534 4219 1204 4116 
Q 875 4013 500 3803 
L 500 4441 
Q 881 4594 1212 4672 
Q 1544 4750 1819 4750 
Q 2544 4750 2975 4387 
Q 3406 4025 3406 3419 
Q 3406 3131 3298 2873 
Q 3191 2616 2906 2266 
Q 2828 2175 2409 1742 
Q 1991 1309 1228 531 
z
" transform="scale(0.015625)"/>
       </defs>
       <use xlink:href="#DejaVuSans-32"/>
      </g>
     </g>
    </g>
    <g id="xtick_4">
     <g id="line2d_4">
      <path d="M 240.460003 244.8 
L 240.460003 25.92 
" clip-path="url(#p0ebee0c4d9)" style="fill: none; stroke: #ffffff; stroke-linecap: round"/>
     </g>
     <g id="text_4">
      <!-- 3 -->
      <g style="fill: #262626" transform="translate(236.960628 262.658281)scale(0.11 -0.11)">
       <defs>
        <path id="DejaVuSans-33" d="M 2597 2516 
Q 3050 2419 3304 2112 
Q 3559 1806 3559 1356 
Q 3559 666 3084 287 
Q 2609 -91 1734 -91 
Q 1441 -91 1130 -33 
Q 819 25 488 141 
L 488 750 
Q 750 597 1062 519 
Q 1375 441 1716 441 
Q 2309 441 2620 675 
Q 2931 909 2931 1356 
Q 2931 1769 2642 2001 
Q 2353 2234 1838 2234 
L 1294 2234 
L 1294 2753 
L 1863 2753 
Q 2328 2753 2575 2939 
Q 2822 3125 2822 3475 
Q 2822 3834 2567 4026 
Q 2313 4219 1838 4219 
Q 1578 4219 1281 4162 
Q 984 4106 628 3988 
L 628 4550 
Q 988 4650 1302 4700 
Q 1616 4750 1894 4750 
Q 2613 4750 3031 4423 
Q 3450 4097 3450 3541 
Q 3450 3153 3228 2886 
Q 3006 2619 2597 2516 
z
" transform="scale(0.015625)"/>
       </defs>
       <use xlink:href="#DejaVuSans-33"/>
      </g>
     </g>
    </g>
    <g id="text_5">
     <!-- Log Dose -->
     <g style="fill: #262626" transform="translate(136.425938 278.064062)scale(0.12 -0.12)">
      <defs>
       <path id="DejaVuSans-4c" d="M 628 4666 
L 1259 4666 
L 1259 531 
L 3531 531 
L 3531 0 
L 628 0 
L 628 4666 
z
" transform="scale(0.015625)"/>
       <path id="DejaVuSans-6f" d="M 1959 3097 
Q 1497 3097 1228 2736 
Q 959 2375 959 1747 
Q 959 1119 1226 758 
Q 1494 397 1959 397 
Q 2419 397 2687 759 
Q 2956 1122 2956 1747 
Q 2956 2369 2687 2733 
Q 2419 3097 1959 3097 
z
M 1959 3584 
Q 2709 3584 3137 3096 
Q 3566 2609 3566 1747 
Q 3566 888 3137 398 
Q 2709 -91 1959 -91 
Q 1206 -91 779 398 
Q 353 888 353 1747 
Q 353 2609 779 3096 
Q 1206 3584 1959 3584 
z
" transform="scale(0.015625)"/>
       <path id="DejaVuSans-67" d="M 2906 1791 
Q 2906 2416 2648 2759 
Q 2391 3103 1925 3103 
Q 1463 3103 1205 2759 
Q 947 2416 947 1791 
Q 947 1169 1205 825 
Q 1463 481 1925 481 
Q 2391 481 2648 825 
Q 2906 1169 2906 1791 
z
M 3481 434 
Q 3481 -459 3084 -895 
Q 2688 -1331 1869 -1331 
Q 1566 -1331 1297 -1286 
Q 1028 -1241 775 -1147 
L 775 -588 
Q 1028 -725 1275 -790 
Q 1522 -856 1778 -856 
Q 2344 -856 2625 -561 
Q 2906 -266 2906 331 
L 2906 616 
Q 2728 306 2450 153 
Q 2172 0 1784 0 
Q 1141 0 747 490 
Q 353 981 353 1791 
Q 353 2603 747 3093 
Q 1141 3584 1784 3584 
Q 2172 3584 2450 3431 
Q 2728 3278 2906 2969 
L 2906 3500 
L 3481 3500 
L 3481 434 
z
" transform="scale(0.015625)"/>
       <path id="DejaVuSans-20" transform="scale(0.015625)"/>
       <path id="DejaVuSans-44" d="M 1259 4147 
L 1259 519 
L 2022 519 
Q 2988 519 3436 956 
Q 3884 1394 3884 2338 
Q 3884 3275 3436 3711 
Q 2988 4147 2022 4147 
L 1259 4147 
z
M 628 4666 
L 1925 4666 
Q 3281 4666 3915 4102 
Q 4550 3538 4550 2338 
Q 4550 1131 3912 565 
Q 3275 0 1925 0 
L 628 0 
L 628 4666 
z
" transform="scale(0.015625)"/>
       <path id="DejaVuSans-73" d="M 2834 3397 
L 2834 2853 
Q 2591 2978 2328 3040 
Q 2066 3103 1784 3103 
Q 1356 3103 1142 2972 
Q 928 2841 928 2578 
Q 928 2378 1081 2264 
Q 1234 2150 1697 2047 
L 1894 2003 
Q 2506 1872 2764 1633 
Q 3022 1394 3022 966 
Q 3022 478 2636 193 
Q 2250 -91 1575 -91 
Q 1294 -91 989 -36 
Q 684 19 347 128 
L 347 722 
Q 666 556 975 473 
Q 1284 391 1588 391 
Q 1994 391 2212 530 
Q 2431 669 2431 922 
Q 2431 1156 2273 1281 
Q 2116 1406 1581 1522 
L 1381 1569 
Q 847 1681 609 1914 
Q 372 2147 372 2553 
Q 372 3047 722 3315 
Q 1072 3584 1716 3584 
Q 2034 3584 2315 3537 
Q 2597 3491 2834 3397 
z
" transform="scale(0.015625)"/>
       <path id="DejaVuSans-65" d="M 3597 1894 
L 3597 1613 
L 953 1613 
Q 991 1019 1311 708 
Q 1631 397 2203 397 
Q 2534 397 2845 478 
Q 3156 559 3463 722 
L 3463 178 
Q 3153 47 2828 -22 
Q 2503 -91 2169 -91 
Q 1331 -91 842 396 
Q 353 884 353 1716 
Q 353 2575 817 3079 
Q 1281 3584 2069 3584 
Q 2775 3584 3186 3129 
Q 3597 2675 3597 1894 
z
M 3022 2063 
Q 3016 2534 2758 2815 
Q 2500 3097 2075 3097 
Q 1594 3097 1305 2825 
Q 1016 2553 972 2059 
L 3022 2063 
z
" transform="scale(0.015625)"/>
      </defs>
      <use xlink:href="#DejaVuSans-4c"/>
      <use xlink:href="#DejaVuSans-6f" x="53.962891"/>
      <use xlink:href="#DejaVuSans-67" x="115.144531"/>
      <use xlink:href="#DejaVuSans-20" x="178.621094"/>
      <use xlink:href="#DejaVuSans-44" x="210.408203"/>
      <use xlink:href="#DejaVuSans-6f" x="287.410156"/>
      <use xlink:href="#DejaVuSans-73" x="348.591797"/>
      <use xlink:href="#DejaVuSans-65" x="400.691406"/>
     </g>
    </g>
   </g>
   <g id="matplotlib.axis_2">
    <g id="ytick_1">
     <g id="line2d_5">
      <path d="M 51.84 234.850909 
L 276.48 234.850909 
" clip-path="url(#p0ebee0c4d9)" style="fill: none; stroke: #ffffff; stroke-linecap: round"/>
     </g>
     <g id="line2d_6">
      <defs>
       <path id="mf900e01434" d="M 0 0 
L -6 0 
" style="stroke: #262626; stroke-width: 1.25"/>
      </defs>
      <g>
       <use xlink:href="#mf900e01434" x="51.84" y="234.850909" style="fill: #262626; stroke: #262626; stroke-width: 1.25"/>
      </g>
     </g>
     <g id="text_6">
      <!-- 0.0 -->
      <g style="fill: #262626" transform="translate(24.846562 239.03005)scale(0.11 -0.11)">
       <defs>
        <path id="DejaVuSans-2e" d="M 684 794 
L 1344 794 
L 1344 0 
L 684 0 
L 684 794 
z
" transform="scale(0.015625)"/>
       </defs>
       <use xlink:href="#DejaVuSans-30"/>
       <use xlink:href="#DejaVuSans-2e" x="63.623047"/>
       <use xlink:href="#DejaVuSans-30" x="95.410156"/>
      </g>
     </g>
    </g>
    <g id="ytick_2">
     <g id="line2d_7">
      <path d="M 51.84 210.130569 
L 276.48 210.130569 
" clip-path="url(#p0ebee0c4d9)" style="fill: none; stroke: #ffffff; stroke-linecap: round"/>
     </g>
     <g id="line2d_8">
      <g>
       <use xlink:href="#mf900e01434" x="51.84" y="210.130569" style="fill: #262626; stroke: #262626; stroke-width: 1.25"/>
      </g>
     </g>
     <g id="text_7">
      <!-- 0.1 -->
      <g style="fill: #262626" transform="translate(24.846562 214.309709)scale(0.11 -0.11)">
       <use xlink:href="#DejaVuSans-30"/>
       <use xlink:href="#DejaVuSans-2e" x="63.623047"/>
       <use xlink:href="#DejaVuSans-31" x="95.410156"/>
      </g>
     </g>
    </g>
    <g id="ytick_3">
     <g id="line2d_9">
      <path d="M 51.84 185.410228 
L 276.48 185.410228 
" clip-path="url(#p0ebee0c4d9)" style="fill: none; stroke: #ffffff; stroke-linecap: round"/>
     </g>
     <g id="line2d_10">
      <g>
       <use xlink:href="#mf900e01434" x="51.84" y="185.410228" style="fill: #262626; stroke: #262626; stroke-width: 1.25"/>
      </g>
     </g>
     <g id="text_8">
      <!-- 0.2 -->
      <g style="fill: #262626" transform="translate(24.846562 189.589369)scale(0.11 -0.11)">
       <use xlink:href="#DejaVuSans-30"/>
       <use xlink:href="#DejaVuSans-2e" x="63.623047"/>
       <use xlink:href="#DejaVuSans-32" x="95.410156"/>
      </g>
     </g>
    </g>
    <g id="ytick_4">
     <g id="line2d_11">
      <path d="M 51.84 160.689887 
L 276.48 160.689887 
" clip-path="url(#p0ebee0c4d9)" style="fill: none; stroke: #ffffff; stroke-linecap: round"/>
     </g>
     <g id="line2d_12">
      <g>
       <use xlink:href="#mf900e01434" x="51.84" y="160.689887" style="fill: #262626; stroke: #262626; stroke-width: 1.25"/>
      </g>
     </g>
     <g id="text_9">
      <!-- 0.3 -->
      <g style="fill: #262626" transform="translate(24.846562 164.869028)scale(0.11 -0.11)">
       <use xlink:href="#DejaVuSans-30"/>
       <use xlink:href="#DejaVuSans-2e" x="63.623047"/>
       <use xlink:href="#DejaVuSans-33" x="95.410156"/>
      </g>
     </g>
    </g>
    <g id="ytick_5">
     <g id="line2d_13">
      <path d="M 51.84 135.969547 
L 276.48 135.969547 
" clip-path="url(#p0ebee0c4d9)" style="fill: none; stroke: #ffffff; stroke-linecap: round"/>
     </g>
     <g id="line2d_14">
      <g>
       <use xlink:href="#mf900e01434" x="51.84" y="135.969547" style="fill: #262626; stroke: #262626; stroke-width: 1.25"/>
      </g>
     </g>
     <g id="text_10">
      <!-- 0.4 -->
      <g style="fill: #262626" transform="translate(24.846562 140.148687)scale(0.11 -0.11)">
       <defs>
        <path id="DejaVuSans-34" d="M 2419 4116 
L 825 1625 
L 2419 1625 
L 2419 4116 
z
M 2253 4666 
L 3047 4666 
L 3047 1625 
L 3713 1625 
L 3713 1100 
L 3047 1100 
L 3047 0 
L 2419 0 
L 2419 1100 
L 313 1100 
L 313 1709 
L 2253 4666 
z
" transform="scale(0.015625)"/>
       </defs>
       <use xlink:href="#DejaVuSans-30"/>
       <use xlink:href="#DejaVuSans-2e" x="63.623047"/>
       <use xlink:href="#DejaVuSans-34" x="95.410156"/>
      </g>
     </g>
    </g>
    <g id="ytick_6">
     <g id="line2d_15">
      <path d="M 51.84 111.249206 
L 276.48 111.249206 
" clip-path="url(#p0ebee0c4d9)" style="fill: none; stroke: #ffffff; stroke-linecap: round"/>
     </g>
     <g id="line2d_16">
      <g>
       <use xlink:href="#mf900e01434" x="51.84" y="111.249206" style="fill: #262626; stroke: #262626; stroke-width: 1.25"/>
      </g>
     </g>
     <g id="text_11">
      <!-- 0.5 -->
      <g style="fill: #262626" transform="translate(24.846562 115.428347)scale(0.11 -0.11)">
       <defs>
        <path id="DejaVuSans-35" d="M 691 4666 
L 3169 4666 
L 3169 4134 
L 1269 4134 
L 1269 2991 
Q 1406 3038 1543 3061 
Q 1681 3084 1819 3084 
Q 2600 3084 3056 2656 
Q 3513 2228 3513 1497 
Q 3513 744 3044 326 
Q 2575 -91 1722 -91 
Q 1428 -91 1123 -41 
Q 819 9 494 109 
L 494 744 
Q 775 591 1075 516 
Q 1375 441 1709 441 
Q 2250 441 2565 725 
Q 2881 1009 2881 1497 
Q 2881 1984 2565 2268 
Q 2250 2553 1709 2553 
Q 1456 2553 1204 2497 
Q 953 2441 691 2322 
L 691 4666 
z
" transform="scale(0.015625)"/>
       </defs>
       <use xlink:href="#DejaVuSans-30"/>
       <use xlink:href="#DejaVuSans-2e" x="63.623047"/>
       <use xlink:href="#DejaVuSans-35" x="95.410156"/>
      </g>
     </g>
    </g>
    <g id="ytick_7">
     <g id="line2d_17">
      <path d="M 51.84 86.528866 
L 276.48 86.528866 
" clip-path="url(#p0ebee0c4d9)" style="fill: none; stroke: #ffffff; stroke-linecap: round"/>
     </g>
     <g id="line2d_18">
      <g>
       <use xlink:href="#mf900e01434" x="51.84" y="86.528866" style="fill: #262626; stroke: #262626; stroke-width: 1.25"/>
      </g>
     </g>
     <g id="text_12">
      <!-- 0.6 -->
      <g style="fill: #262626" transform="translate(24.846562 90.708006)scale(0.11 -0.11)">
       <defs>
        <path id="DejaVuSans-36" d="M 2113 2584 
Q 1688 2584 1439 2293 
Q 1191 2003 1191 1497 
Q 1191 994 1439 701 
Q 1688 409 2113 409 
Q 2538 409 2786 701 
Q 3034 994 3034 1497 
Q 3034 2003 2786 2293 
Q 2538 2584 2113 2584 
z
M 3366 4563 
L 3366 3988 
Q 3128 4100 2886 4159 
Q 2644 4219 2406 4219 
Q 1781 4219 1451 3797 
Q 1122 3375 1075 2522 
Q 1259 2794 1537 2939 
Q 1816 3084 2150 3084 
Q 2853 3084 3261 2657 
Q 3669 2231 3669 1497 
Q 3669 778 3244 343 
Q 2819 -91 2113 -91 
Q 1303 -91 875 529 
Q 447 1150 447 2328 
Q 447 3434 972 4092 
Q 1497 4750 2381 4750 
Q 2619 4750 2861 4703 
Q 3103 4656 3366 4563 
z
" transform="scale(0.015625)"/>
       </defs>
       <use xlink:href="#DejaVuSans-30"/>
       <use xlink:href="#DejaVuSans-2e" x="63.623047"/>
       <use xlink:href="#DejaVuSans-36" x="95.410156"/>
      </g>
     </g>
    </g>
    <g id="ytick_8">
     <g id="line2d_19">
      <path d="M 51.84 61.808525 
L 276.48 61.808525 
" clip-path="url(#p0ebee0c4d9)" style="fill: none; stroke: #ffffff; stroke-linecap: round"/>
     </g>
     <g id="line2d_20">
      <g>
       <use xlink:href="#mf900e01434" x="51.84" y="61.808525" style="fill: #262626; stroke: #262626; stroke-width: 1.25"/>
      </g>
     </g>
     <g id="text_13">
      <!-- 0.7 -->
      <g style="fill: #262626" transform="translate(24.846562 65.987666)scale(0.11 -0.11)">
       <defs>
        <path id="DejaVuSans-37" d="M 525 4666 
L 3525 4666 
L 3525 4397 
L 1831 0 
L 1172 0 
L 2766 4134 
L 525 4134 
L 525 4666 
z
" transform="scale(0.015625)"/>
       </defs>
       <use xlink:href="#DejaVuSans-30"/>
       <use xlink:href="#DejaVuSans-2e" x="63.623047"/>
       <use xlink:href="#DejaVuSans-37" x="95.410156"/>
      </g>
     </g>
    </g>
    <g id="ytick_9">
     <g id="line2d_21">
      <path d="M 51.84 37.088185 
L 276.48 37.088185 
" clip-path="url(#p0ebee0c4d9)" style="fill: none; stroke: #ffffff; stroke-linecap: round"/>
     </g>
     <g id="line2d_22">
      <g>
       <use xlink:href="#mf900e01434" x="51.84" y="37.088185" style="fill: #262626; stroke: #262626; stroke-width: 1.25"/>
      </g>
     </g>
     <g id="text_14">
      <!-- 0.8 -->
      <g style="fill: #262626" transform="translate(24.846562 41.267325)scale(0.11 -0.11)">
       <defs>
        <path id="DejaVuSans-38" d="M 2034 2216 
Q 1584 2216 1326 1975 
Q 1069 1734 1069 1313 
Q 1069 891 1326 650 
Q 1584 409 2034 409 
Q 2484 409 2743 651 
Q 3003 894 3003 1313 
Q 3003 1734 2745 1975 
Q 2488 2216 2034 2216 
z
M 1403 2484 
Q 997 2584 770 2862 
Q 544 3141 544 3541 
Q 544 4100 942 4425 
Q 1341 4750 2034 4750 
Q 2731 4750 3128 4425 
Q 3525 4100 3525 3541 
Q 3525 3141 3298 2862 
Q 3072 2584 2669 2484 
Q 3125 2378 3379 2068 
Q 3634 1759 3634 1313 
Q 3634 634 3220 271 
Q 2806 -91 2034 -91 
Q 1263 -91 848 271 
Q 434 634 434 1313 
Q 434 1759 690 2068 
Q 947 2378 1403 2484 
z
M 1172 3481 
Q 1172 3119 1398 2916 
Q 1625 2713 2034 2713 
Q 2441 2713 2670 2916 
Q 2900 3119 2900 3481 
Q 2900 3844 2670 4047 
Q 2441 4250 2034 4250 
Q 1625 4250 1398 4047 
Q 1172 3844 1172 3481 
z
" transform="scale(0.015625)"/>
       </defs>
       <use xlink:href="#DejaVuSans-30"/>
       <use xlink:href="#DejaVuSans-2e" x="63.623047"/>
       <use xlink:href="#DejaVuSans-38" x="95.410156"/>
      </g>
     </g>
    </g>
    <g id="text_15">
     <!-- Ahrr -->
     <g style="fill: #262626" transform="translate(18.350937 148.095)rotate(-90)scale(0.12 -0.12)">
      <defs>
       <path id="DejaVuSans-41" d="M 2188 4044 
L 1331 1722 
L 3047 1722 
L 2188 4044 
z
M 1831 4666 
L 2547 4666 
L 4325 0 
L 3669 0 
L 3244 1197 
L 1141 1197 
L 716 0 
L 50 0 
L 1831 4666 
z
" transform="scale(0.015625)"/>
       <path id="DejaVuSans-68" d="M 3513 2113 
L 3513 0 
L 2938 0 
L 2938 2094 
Q 2938 2591 2744 2837 
Q 2550 3084 2163 3084 
Q 1697 3084 1428 2787 
Q 1159 2491 1159 1978 
L 1159 0 
L 581 0 
L 581 4863 
L 1159 4863 
L 1159 2956 
Q 1366 3272 1645 3428 
Q 1925 3584 2291 3584 
Q 2894 3584 3203 3211 
Q 3513 2838 3513 2113 
z
" transform="scale(0.015625)"/>
       <path id="DejaVuSans-72" d="M 2631 2963 
Q 2534 3019 2420 3045 
Q 2306 3072 2169 3072 
Q 1681 3072 1420 2755 
Q 1159 2438 1159 1844 
L 1159 0 
L 581 0 
L 581 3500 
L 1159 3500 
L 1159 2956 
Q 1341 3275 1631 3429 
Q 1922 3584 2338 3584 
Q 2397 3584 2469 3576 
Q 2541 3569 2628 3553 
L 2631 2963 
z
" transform="scale(0.015625)"/>
      </defs>
      <use xlink:href="#DejaVuSans-41"/>
      <use xlink:href="#DejaVuSans-68" x="68.408203"/>
      <use xlink:href="#DejaVuSans-72" x="131.787109"/>
      <use xlink:href="#DejaVuSans-72" x="171.150391"/>
     </g>
    </g>
   </g>
   <g id="line2d_23">
    <path d="M 62.050909 234.776142 
L 62.642652 234.791692 
L 63.808762 234.812594 
L 67.718977 234.823069 
L 77.653633 234.334727 
L 103.272163 214.601832 
L 144.493416 152.725682 
L 204.653017 39.464837 
L 266.269091 77.887932 
" clip-path="url(#p0ebee0c4d9)" style="fill: none; stroke: #4c72b0; stroke-width: 1.5; stroke-linecap: round"/>
   </g>
   <g id="LineCollection_1">
    <path d="M 62.050909 234.803361 
L 62.050909 234.748337 
" clip-path="url(#p0ebee0c4d9)" style="fill: none; stroke: #4c72b0; stroke-width: 1.5; stroke-linecap: round"/>
    <path d="M 62.642652 234.850909 
L 62.642652 234.7177 
" clip-path="url(#p0ebee0c4d9)" style="fill: none; stroke: #4c72b0; stroke-width: 1.5; stroke-linecap: round"/>
    <path d="M 63.808762 234.850909 
L 63.808762 234.7542 
" clip-path="url(#p0ebee0c4d9)" style="fill: none; stroke: #4c72b0; stroke-width: 1.5; stroke-linecap: round"/>
    <path d="M 67.718977 234.850909 
L 67.718977 234.781304 
" clip-path="url(#p0ebee0c4d9)" style="fill: none; stroke: #4c72b0; stroke-width: 1.5; stroke-linecap: round"/>
    <path d="M 77.653633 234.544197 
L 77.653633 234.118576 
" clip-path="url(#p0ebee0c4d9)" style="fill: none; stroke: #4c72b0; stroke-width: 1.5; stroke-linecap: round"/>
    <path d="M 103.272163 216.052818 
L 103.272163 213.065804 
" clip-path="url(#p0ebee0c4d9)" style="fill: none; stroke: #4c72b0; stroke-width: 1.5; stroke-linecap: round"/>
    <path d="M 144.493416 155.619013 
L 144.493416 149.710071 
" clip-path="url(#p0ebee0c4d9)" style="fill: none; stroke: #4c72b0; stroke-width: 1.5; stroke-linecap: round"/>
    <path d="M 204.653017 43.054932 
L 204.653017 35.869091 
" clip-path="url(#p0ebee0c4d9)" style="fill: none; stroke: #4c72b0; stroke-width: 1.5; stroke-linecap: round"/>
    <path d="M 266.269091 85.802237 
L 266.269091 70.43466 
" clip-path="url(#p0ebee0c4d9)" style="fill: none; stroke: #4c72b0; stroke-width: 1.5; stroke-linecap: round"/>
   </g>
   <g id="line2d_24">
    <path d="M 62.642652 232.551001 
L 63.808762 232.453641 
L 67.718977 232.079541 
L 77.653633 230.684715 
L 103.272163 222.328406 
L 144.493416 184.069589 
L 204.653017 98.444774 
L 266.269091 39.01545 
" clip-path="url(#p0ebee0c4d9)" style="fill: none; stroke: #dd8452; stroke-width: 1.5; stroke-linecap: round"/>
   </g>
   <g id="LineCollection_2">
    <path d="M 62.642652 232.741135 
L 62.642652 232.372729 
" clip-path="url(#p0ebee0c4d9)" style="fill: none; stroke: #dd8452; stroke-width: 1.5; stroke-linecap: round"/>
    <path d="M 63.808762 232.624602 
L 63.808762 232.273051 
" clip-path="url(#p0ebee0c4d9)" style="fill: none; stroke: #dd8452; stroke-width: 1.5; stroke-linecap: round"/>
    <path d="M 67.718977 232.263783 
L 67.718977 231.894442 
" clip-path="url(#p0ebee0c4d9)" style="fill: none; stroke: #dd8452; stroke-width: 1.5; stroke-linecap: round"/>
    <path d="M 77.653633 230.929586 
L 77.653633 230.451696 
" clip-path="url(#p0ebee0c4d9)" style="fill: none; stroke: #dd8452; stroke-width: 1.5; stroke-linecap: round"/>
    <path d="M 103.272163 222.773934 
L 103.272163 221.93072 
" clip-path="url(#p0ebee0c4d9)" style="fill: none; stroke: #dd8452; stroke-width: 1.5; stroke-linecap: round"/>
    <path d="M 144.493416 185.050849 
L 144.493416 183.108867 
" clip-path="url(#p0ebee0c4d9)" style="fill: none; stroke: #dd8452; stroke-width: 1.5; stroke-linecap: round"/>
    <path d="M 204.653017 99.477957 
L 204.653017 97.354814 
" clip-path="url(#p0ebee0c4d9)" style="fill: none; stroke: #dd8452; stroke-width: 1.5; stroke-linecap: round"/>
    <path d="M 266.269091 39.912401 
L 266.269091 38.084044 
" clip-path="url(#p0ebee0c4d9)" style="fill: none; stroke: #dd8452; stroke-width: 1.5; stroke-linecap: round"/>
   </g>
   <g id="line2d_25">
    <path d="M 62.642652 232.746509 
L 63.808762 232.694749 
L 67.718977 232.496632 
L 77.653633 231.777624 
L 103.272163 227.540733 
L 144.493416 206.817253 
L 204.653017 147.371484 
L 266.269091 104.087472 
" clip-path="url(#p0ebee0c4d9)" style="fill: none; stroke: #55a868; stroke-width: 1.5; stroke-linecap: round"/>
   </g>
   <g id="LineCollection_3">
    <path d="M 62.642652 232.934658 
L 62.642652 232.548537 
" clip-path="url(#p0ebee0c4d9)" style="fill: none; stroke: #55a868; stroke-width: 1.5; stroke-linecap: round"/>
    <path d="M 63.808762 232.876647 
L 63.808762 232.512743 
" clip-path="url(#p0ebee0c4d9)" style="fill: none; stroke: #55a868; stroke-width: 1.5; stroke-linecap: round"/>
    <path d="M 67.718977 232.674283 
L 67.718977 232.316154 
" clip-path="url(#p0ebee0c4d9)" style="fill: none; stroke: #55a868; stroke-width: 1.5; stroke-linecap: round"/>
    <path d="M 77.653633 231.997002 
L 77.653633 231.54725 
" clip-path="url(#p0ebee0c4d9)" style="fill: none; stroke: #55a868; stroke-width: 1.5; stroke-linecap: round"/>
    <path d="M 103.272163 227.892108 
L 103.272163 227.161486 
" clip-path="url(#p0ebee0c4d9)" style="fill: none; stroke: #55a868; stroke-width: 1.5; stroke-linecap: round"/>
    <path d="M 144.493416 207.620722 
L 144.493416 205.957964 
" clip-path="url(#p0ebee0c4d9)" style="fill: none; stroke: #55a868; stroke-width: 1.5; stroke-linecap: round"/>
    <path d="M 204.653017 148.526849 
L 204.653017 146.229808 
" clip-path="url(#p0ebee0c4d9)" style="fill: none; stroke: #55a868; stroke-width: 1.5; stroke-linecap: round"/>
    <path d="M 266.269091 105.007511 
L 266.269091 103.171016 
" clip-path="url(#p0ebee0c4d9)" style="fill: none; stroke: #55a868; stroke-width: 1.5; stroke-linecap: round"/>
   </g>
   <g id="line2d_26"/>
   <g id="line2d_27"/>
   <g id="line2d_28"/>
   <g id="line2d_29"/>
   <g id="line2d_30"/>
   <g id="line2d_31"/>
   <g id="patch_3">
    <path d="M 51.84 244.8 
L 51.84 25.92 
" style="fill: none; stroke: #ffffff; stroke-width: 1.25; stroke-linejoin: miter; stroke-linecap: square"/>
   </g>
   <g id="patch_4">
    <path d="M 276.48 244.8 
L 276.48 25.92 
" style="fill: none; stroke: #ffffff; stroke-width: 1.25; stroke-linejoin: miter; stroke-linecap: square"/>
   </g>
   <g id="patch_5">
    <path d="M 51.84 244.8 
L 276.48 244.8 
" style="fill: none; stroke: #ffffff; stroke-width: 1.25; stroke-linejoin: miter; stroke-linecap: square"/>
   </g>
   <g id="patch_6">
    <path d="M 51.84 25.92 
L 276.48 25.92 
" style="fill: none; stroke: #ffffff; stroke-width: 1.25; stroke-linejoin: miter; stroke-linecap: square"/>
   </g>
   <g id="legend_1">
    <g id="patch_7">
     <path d="M 59.54 95.737188 
L 152.854063 95.737188 
Q 155.054063 95.737188 155.054063 93.537188 
L 155.054063 33.62 
Q 155.054063 31.42 152.854063 31.42 
L 59.54 31.42 
Q 57.34 31.42 57.34 33.62 
L 57.34 93.537188 
Q 57.34 95.737188 59.54 95.737188 
z
" style="fill: #eaeaf2; opacity: 0.8; stroke: #cccccc; stroke-linejoin: miter"/>
    </g>
    <g id="text_16">
     <!-- Response -->
     <g style="fill: #262626" transform="translate(82.182969 43.418438)scale(0.1 -0.1)">
      <defs>
       <path id="DejaVuSans-52" d="M 2841 2188 
Q 3044 2119 3236 1894 
Q 3428 1669 3622 1275 
L 4263 0 
L 3584 0 
L 2988 1197 
Q 2756 1666 2539 1819 
Q 2322 1972 1947 1972 
L 1259 1972 
L 1259 0 
L 628 0 
L 628 4666 
L 2053 4666 
Q 2853 4666 3247 4331 
Q 3641 3997 3641 3322 
Q 3641 2881 3436 2590 
Q 3231 2300 2841 2188 
z
M 1259 4147 
L 1259 2491 
L 2053 2491 
Q 2509 2491 2742 2702 
Q 2975 2913 2975 3322 
Q 2975 3731 2742 3939 
Q 2509 4147 2053 4147 
L 1259 4147 
z
" transform="scale(0.015625)"/>
       <path id="DejaVuSans-70" d="M 1159 525 
L 1159 -1331 
L 581 -1331 
L 581 3500 
L 1159 3500 
L 1159 2969 
Q 1341 3281 1617 3432 
Q 1894 3584 2278 3584 
Q 2916 3584 3314 3078 
Q 3713 2572 3713 1747 
Q 3713 922 3314 415 
Q 2916 -91 2278 -91 
Q 1894 -91 1617 61 
Q 1341 213 1159 525 
z
M 3116 1747 
Q 3116 2381 2855 2742 
Q 2594 3103 2138 3103 
Q 1681 3103 1420 2742 
Q 1159 2381 1159 1747 
Q 1159 1113 1420 752 
Q 1681 391 2138 391 
Q 2594 391 2855 752 
Q 3116 1113 3116 1747 
z
" transform="scale(0.015625)"/>
       <path id="DejaVuSans-6e" d="M 3513 2113 
L 3513 0 
L 2938 0 
L 2938 2094 
Q 2938 2591 2744 2837 
Q 2550 3084 2163 3084 
Q 1697 3084 1428 2787 
Q 1159 2491 1159 1978 
L 1159 0 
L 581 0 
L 581 3500 
L 1159 3500 
L 1159 2956 
Q 1366 3272 1645 3428 
Q 1925 3584 2291 3584 
Q 2894 3584 3203 3211 
Q 3513 2838 3513 2113 
z
" transform="scale(0.015625)"/>
      </defs>
      <use xlink:href="#DejaVuSans-52"/>
      <use xlink:href="#DejaVuSans-65" x="64.982422"/>
      <use xlink:href="#DejaVuSans-73" x="126.505859"/>
      <use xlink:href="#DejaVuSans-70" x="178.605469"/>
      <use xlink:href="#DejaVuSans-6f" x="242.082031"/>
      <use xlink:href="#DejaVuSans-6e" x="303.263672"/>
      <use xlink:href="#DejaVuSans-73" x="366.642578"/>
      <use xlink:href="#DejaVuSans-65" x="418.742188"/>
     </g>
    </g>
    <g id="line2d_32">
     <path d="M 61.74 54.848125 
L 64.49 54.848125 
L 67.24 54.848125 
" style="fill: none; stroke: #4c72b0; stroke-width: 1.5; stroke-linecap: round"/>
    </g>
    <g id="text_17">
     <!-- Real Expression -->
     <g style="fill: #262626" transform="translate(71.64 58.698125)scale(0.1 -0.1)">
      <defs>
       <path id="DejaVuSans-61" d="M 2194 1759 
Q 1497 1759 1228 1600 
Q 959 1441 959 1056 
Q 959 750 1161 570 
Q 1363 391 1709 391 
Q 2188 391 2477 730 
Q 2766 1069 2766 1631 
L 2766 1759 
L 2194 1759 
z
M 3341 1997 
L 3341 0 
L 2766 0 
L 2766 531 
Q 2569 213 2275 61 
Q 1981 -91 1556 -91 
Q 1019 -91 701 211 
Q 384 513 384 1019 
Q 384 1609 779 1909 
Q 1175 2209 1959 2209 
L 2766 2209 
L 2766 2266 
Q 2766 2663 2505 2880 
Q 2244 3097 1772 3097 
Q 1472 3097 1187 3025 
Q 903 2953 641 2809 
L 641 3341 
Q 956 3463 1253 3523 
Q 1550 3584 1831 3584 
Q 2591 3584 2966 3190 
Q 3341 2797 3341 1997 
z
" transform="scale(0.015625)"/>
       <path id="DejaVuSans-6c" d="M 603 4863 
L 1178 4863 
L 1178 0 
L 603 0 
L 603 4863 
z
" transform="scale(0.015625)"/>
       <path id="DejaVuSans-45" d="M 628 4666 
L 3578 4666 
L 3578 4134 
L 1259 4134 
L 1259 2753 
L 3481 2753 
L 3481 2222 
L 1259 2222 
L 1259 531 
L 3634 531 
L 3634 0 
L 628 0 
L 628 4666 
z
" transform="scale(0.015625)"/>
       <path id="DejaVuSans-78" d="M 3513 3500 
L 2247 1797 
L 3578 0 
L 2900 0 
L 1881 1375 
L 863 0 
L 184 0 
L 1544 1831 
L 300 3500 
L 978 3500 
L 1906 2253 
L 2834 3500 
L 3513 3500 
z
" transform="scale(0.015625)"/>
       <path id="DejaVuSans-69" d="M 603 3500 
L 1178 3500 
L 1178 0 
L 603 0 
L 603 3500 
z
M 603 4863 
L 1178 4863 
L 1178 4134 
L 603 4134 
L 603 4863 
z
" transform="scale(0.015625)"/>
      </defs>
      <use xlink:href="#DejaVuSans-52"/>
      <use xlink:href="#DejaVuSans-65" x="64.982422"/>
      <use xlink:href="#DejaVuSans-61" x="126.505859"/>
      <use xlink:href="#DejaVuSans-6c" x="187.785156"/>
      <use xlink:href="#DejaVuSans-20" x="215.568359"/>
      <use xlink:href="#DejaVuSans-45" x="247.355469"/>
      <use xlink:href="#DejaVuSans-78" x="310.539062"/>
      <use xlink:href="#DejaVuSans-70" x="369.71875"/>
      <use xlink:href="#DejaVuSans-72" x="433.195312"/>
      <use xlink:href="#DejaVuSans-65" x="472.058594"/>
      <use xlink:href="#DejaVuSans-73" x="533.582031"/>
      <use xlink:href="#DejaVuSans-73" x="585.681641"/>
      <use xlink:href="#DejaVuSans-69" x="637.78125"/>
      <use xlink:href="#DejaVuSans-6f" x="665.564453"/>
      <use xlink:href="#DejaVuSans-6e" x="726.746094"/>
     </g>
    </g>
    <g id="line2d_33">
     <path d="M 61.74 70.127813 
L 64.49 70.127813 
L 67.24 70.127813 
" style="fill: none; stroke: #dd8452; stroke-width: 1.5; stroke-linecap: round"/>
    </g>
    <g id="text_18">
     <!-- scVIDR -->
     <g style="fill: #262626" transform="translate(71.64 73.977812)scale(0.1 -0.1)">
      <defs>
       <path id="DejaVuSans-63" d="M 3122 3366 
L 3122 2828 
Q 2878 2963 2633 3030 
Q 2388 3097 2138 3097 
Q 1578 3097 1268 2742 
Q 959 2388 959 1747 
Q 959 1106 1268 751 
Q 1578 397 2138 397 
Q 2388 397 2633 464 
Q 2878 531 3122 666 
L 3122 134 
Q 2881 22 2623 -34 
Q 2366 -91 2075 -91 
Q 1284 -91 818 406 
Q 353 903 353 1747 
Q 353 2603 823 3093 
Q 1294 3584 2113 3584 
Q 2378 3584 2631 3529 
Q 2884 3475 3122 3366 
z
" transform="scale(0.015625)"/>
       <path id="DejaVuSans-56" d="M 1831 0 
L 50 4666 
L 709 4666 
L 2188 738 
L 3669 4666 
L 4325 4666 
L 2547 0 
L 1831 0 
z
" transform="scale(0.015625)"/>
       <path id="DejaVuSans-49" d="M 628 4666 
L 1259 4666 
L 1259 0 
L 628 0 
L 628 4666 
z
" transform="scale(0.015625)"/>
      </defs>
      <use xlink:href="#DejaVuSans-73"/>
      <use xlink:href="#DejaVuSans-63" x="52.099609"/>
      <use xlink:href="#DejaVuSans-56" x="107.080078"/>
      <use xlink:href="#DejaVuSans-49" x="175.488281"/>
      <use xlink:href="#DejaVuSans-44" x="204.980469"/>
      <use xlink:href="#DejaVuSans-52" x="281.982422"/>
     </g>
    </g>
    <g id="line2d_34">
     <path d="M 61.74 85.4075 
L 64.49 85.4075 
L 67.24 85.4075 
" style="fill: none; stroke: #55a868; stroke-width: 1.5; stroke-linecap: round"/>
    </g>
    <g id="text_19">
     <!-- VAEArith -->
     <g style="fill: #262626" transform="translate(71.64 89.2575)scale(0.1 -0.1)">
      <defs>
       <path id="DejaVuSans-74" d="M 1172 4494 
L 1172 3500 
L 2356 3500 
L 2356 3053 
L 1172 3053 
L 1172 1153 
Q 1172 725 1289 603 
Q 1406 481 1766 481 
L 2356 481 
L 2356 0 
L 1766 0 
Q 1100 0 847 248 
Q 594 497 594 1153 
L 594 3053 
L 172 3053 
L 172 3500 
L 594 3500 
L 594 4494 
L 1172 4494 
z
" transform="scale(0.015625)"/>
      </defs>
      <use xlink:href="#DejaVuSans-56"/>
      <use xlink:href="#DejaVuSans-41" x="62.033203"/>
      <use xlink:href="#DejaVuSans-45" x="130.441406"/>
      <use xlink:href="#DejaVuSans-41" x="193.625"/>
      <use xlink:href="#DejaVuSans-72" x="262.033203"/>
      <use xlink:href="#DejaVuSans-69" x="303.146484"/>
      <use xlink:href="#DejaVuSans-74" x="330.929688"/>
      <use xlink:href="#DejaVuSans-68" x="370.138672"/>
     </g>
    </g>
   </g>
  </g>
  <g id="axes_2">
   <g id="matplotlib.axis_3">
    <g id="ytick_10">
     <g id="line2d_35">
      <path d="M 51.84 244.8 
L 276.48 244.8 
" clip-path="url(#p0ebee0c4d9)" style="fill: none; stroke: #ffffff; stroke-linecap: round"/>
     </g>
     <g id="line2d_36">
      <defs>
       <path id="m5f73e75877" d="M 0 0 
L 6 0 
" style="stroke: #262626; stroke-width: 1.25"/>
      </defs>
      <g>
       <use xlink:href="#m5f73e75877" x="276.48" y="244.8" style="fill: #262626; stroke: #262626; stroke-width: 1.25"/>
      </g>
     </g>
     <g id="text_20">
      <!-- 0.0 -->
      <g style="fill: #262626" transform="translate(285.98 248.979141)scale(0.11 -0.11)">
       <use xlink:href="#DejaVuSans-30"/>
       <use xlink:href="#DejaVuSans-2e" x="63.623047"/>
       <use xlink:href="#DejaVuSans-30" x="95.410156"/>
      </g>
     </g>
    </g>
    <g id="ytick_11">
     <g id="line2d_37">
      <path d="M 51.84 201.024 
L 276.48 201.024 
" clip-path="url(#p0ebee0c4d9)" style="fill: none; stroke: #ffffff; stroke-linecap: round"/>
     </g>
     <g id="line2d_38">
      <g>
       <use xlink:href="#m5f73e75877" x="276.48" y="201.024" style="fill: #262626; stroke: #262626; stroke-width: 1.25"/>
      </g>
     </g>
     <g id="text_21">
      <!-- 0.2 -->
      <g style="fill: #262626" transform="translate(285.98 205.203141)scale(0.11 -0.11)">
       <use xlink:href="#DejaVuSans-30"/>
       <use xlink:href="#DejaVuSans-2e" x="63.623047"/>
       <use xlink:href="#DejaVuSans-32" x="95.410156"/>
      </g>
     </g>
    </g>
    <g id="ytick_12">
     <g id="line2d_39">
      <path d="M 51.84 157.248 
L 276.48 157.248 
" clip-path="url(#p0ebee0c4d9)" style="fill: none; stroke: #ffffff; stroke-linecap: round"/>
     </g>
     <g id="line2d_40">
      <g>
       <use xlink:href="#m5f73e75877" x="276.48" y="157.248" style="fill: #262626; stroke: #262626; stroke-width: 1.25"/>
      </g>
     </g>
     <g id="text_22">
      <!-- 0.4 -->
      <g style="fill: #262626" transform="translate(285.98 161.427141)scale(0.11 -0.11)">
       <use xlink:href="#DejaVuSans-30"/>
       <use xlink:href="#DejaVuSans-2e" x="63.623047"/>
       <use xlink:href="#DejaVuSans-34" x="95.410156"/>
      </g>
     </g>
    </g>
    <g id="ytick_13">
     <g id="line2d_41">
      <path d="M 51.84 113.472 
L 276.48 113.472 
" clip-path="url(#p0ebee0c4d9)" style="fill: none; stroke: #ffffff; stroke-linecap: round"/>
     </g>
     <g id="line2d_42">
      <g>
       <use xlink:href="#m5f73e75877" x="276.48" y="113.472" style="fill: #262626; stroke: #262626; stroke-width: 1.25"/>
      </g>
     </g>
     <g id="text_23">
      <!-- 0.6 -->
      <g style="fill: #262626" transform="translate(285.98 117.651141)scale(0.11 -0.11)">
       <use xlink:href="#DejaVuSans-30"/>
       <use xlink:href="#DejaVuSans-2e" x="63.623047"/>
       <use xlink:href="#DejaVuSans-36" x="95.410156"/>
      </g>
     </g>
    </g>
    <g id="ytick_14">
     <g id="line2d_43">
      <path d="M 51.84 69.696 
L 276.48 69.696 
" clip-path="url(#p0ebee0c4d9)" style="fill: none; stroke: #ffffff; stroke-linecap: round"/>
     </g>
     <g id="line2d_44">
      <g>
       <use xlink:href="#m5f73e75877" x="276.48" y="69.696" style="fill: #262626; stroke: #262626; stroke-width: 1.25"/>
      </g>
     </g>
     <g id="text_24">
      <!-- 0.8 -->
      <g style="fill: #262626" transform="translate(285.98 73.875141)scale(0.11 -0.11)">
       <use xlink:href="#DejaVuSans-30"/>
       <use xlink:href="#DejaVuSans-2e" x="63.623047"/>
       <use xlink:href="#DejaVuSans-38" x="95.410156"/>
      </g>
     </g>
    </g>
    <g id="ytick_15">
     <g id="line2d_45">
      <path d="M 51.84 25.92 
L 276.48 25.92 
" clip-path="url(#p0ebee0c4d9)" style="fill: none; stroke: #ffffff; stroke-linecap: round"/>
     </g>
     <g id="line2d_46">
      <g>
       <use xlink:href="#m5f73e75877" x="276.48" y="25.92" style="fill: #262626; stroke: #262626; stroke-width: 1.25"/>
      </g>
     </g>
     <g id="text_25">
      <!-- 1.0 -->
      <g style="fill: #262626" transform="translate(285.98 30.099141)scale(0.11 -0.11)">
       <use xlink:href="#DejaVuSans-31"/>
       <use xlink:href="#DejaVuSans-2e" x="63.623047"/>
       <use xlink:href="#DejaVuSans-30" x="95.410156"/>
      </g>
     </g>
    </g>
   </g>
   <g id="patch_8">
    <path d="M 51.84 244.8 
L 51.84 25.92 
" style="fill: none; stroke: #ffffff; stroke-width: 1.25; stroke-linejoin: miter; stroke-linecap: square"/>
   </g>
   <g id="patch_9">
    <path d="M 276.48 244.8 
L 276.48 25.92 
" style="fill: none; stroke: #ffffff; stroke-width: 1.25; stroke-linejoin: miter; stroke-linecap: square"/>
   </g>
   <g id="patch_10">
    <path d="M 51.84 244.8 
L 276.48 244.8 
" style="fill: none; stroke: #ffffff; stroke-width: 1.25; stroke-linejoin: miter; stroke-linecap: square"/>
   </g>
   <g id="patch_11">
    <path d="M 51.84 25.92 
L 276.48 25.92 
" style="fill: none; stroke: #ffffff; stroke-width: 1.25; stroke-linejoin: miter; stroke-linecap: square"/>
   </g>
  </g>
 </g>
 <defs>
  <clipPath id="p0ebee0c4d9">
   <rect x="51.84" y="25.92" width="224.64" height="218.88"/>
  </clipPath>
 </defs>
</svg>
