<?xml version="1.0" encoding="utf-8" standalone="no"?>
<!DOCTYPE svg PUBLIC "-//W3C//DTD SVG 1.1//EN"
  "http://www.w3.org/Graphics/SVG/1.1/DTD/svg11.dtd">
<svg xmlns:xlink="http://www.w3.org/1999/xlink" width="288pt" height="288pt" viewBox="0 0 288 288" xmlns="http://www.w3.org/2000/svg" version="1.1">
 <metadata>
  <rdf:RDF xmlns:dc="http://purl.org/dc/elements/1.1/" xmlns:cc="http://creativecommons.org/ns#" xmlns:rdf="http://www.w3.org/1999/02/22-rdf-syntax-ns#">
   <cc:Work>
    <dc:type rdf:resource="http://purl.org/dc/dcmitype/StillImage"/>
    <dc:date>2022-10-27T00:56:23.081019</dc:date>
    <dc:format>image/svg+xml</dc:format>
    <dc:creator>
     <cc:Agent>
      <dc:title>Matplotlib v3.5.1, https://matplotlib.org/</dc:title>
     </cc:Agent>
    </dc:creator>
   </cc:Work>
  </rdf:RDF>
 </metadata>
 <defs>
  <style type="text/css">*{stroke-linejoin: round; stroke-linecap: butt}</style>
 </defs>
 <g id="figure_1">
  <g id="patch_1">
   <path d="M 0 288 
L 288 288 
L 288 0 
L 0 0 
z
" style="fill: #ffffff"/>
  </g>
  <g id="axes_1">
   <g id="patch_2">
    <path d="M 51.84 244.8 
L 276.48 244.8 
L 276.48 25.92 
L 51.84 25.92 
z
" style="fill: #eaeaf2"/>
   </g>
   <g id="matplotlib.axis_1">
    <g id="xtick_1">
     <g id="text_1">
      <!-- Central -->
      <g style="fill: #262626" transform="translate(82.512344 262.437813)scale(0.14 -0.14)">
       <defs>
        <path id="DejaVuSans-43" d="M 4122 4306 
L 4122 3641 
Q 3803 3938 3442 4084 
Q 3081 4231 2675 4231 
Q 1875 4231 1450 3742 
Q 1025 3253 1025 2328 
Q 1025 1406 1450 917 
Q 1875 428 2675 428 
Q 3081 428 3442 575 
Q 3803 722 4122 1019 
L 4122 359 
Q 3791 134 3420 21 
Q 3050 -91 2638 -91 
Q 1578 -91 968 557 
Q 359 1206 359 2328 
Q 359 3453 968 4101 
Q 1578 4750 2638 4750 
Q 3056 4750 3426 4639 
Q 3797 4528 4122 4306 
z
" transform="scale(0.015625)"/>
        <path id="DejaVuSans-65" d="M 3597 1894 
L 3597 1613 
L 953 1613 
Q 991 1019 1311 708 
Q 1631 397 2203 397 
Q 2534 397 2845 478 
Q 3156 559 3463 722 
L 3463 178 
Q 3153 47 2828 -22 
Q 2503 -91 2169 -91 
Q 1331 -91 842 396 
Q 353 884 353 1716 
Q 353 2575 817 3079 
Q 1281 3584 2069 3584 
Q 2775 3584 3186 3129 
Q 3597 2675 3597 1894 
z
M 3022 2063 
Q 3016 2534 2758 2815 
Q 2500 3097 2075 3097 
Q 1594 3097 1305 2825 
Q 1016 2553 972 2059 
L 3022 2063 
z
" transform="scale(0.015625)"/>
        <path id="DejaVuSans-6e" d="M 3513 2113 
L 3513 0 
L 2938 0 
L 2938 2094 
Q 2938 2591 2744 2837 
Q 2550 3084 2163 3084 
Q 1697 3084 1428 2787 
Q 1159 2491 1159 1978 
L 1159 0 
L 581 0 
L 581 3500 
L 1159 3500 
L 1159 2956 
Q 1366 3272 1645 3428 
Q 1925 3584 2291 3584 
Q 2894 3584 3203 3211 
Q 3513 2838 3513 2113 
z
" transform="scale(0.015625)"/>
        <path id="DejaVuSans-74" d="M 1172 4494 
L 1172 3500 
L 2356 3500 
L 2356 3053 
L 1172 3053 
L 1172 1153 
Q 1172 725 1289 603 
Q 1406 481 1766 481 
L 2356 481 
L 2356 0 
L 1766 0 
Q 1100 0 847 248 
Q 594 497 594 1153 
L 594 3053 
L 172 3053 
L 172 3500 
L 594 3500 
L 594 4494 
L 1172 4494 
z
" transform="scale(0.015625)"/>
        <path id="DejaVuSans-72" d="M 2631 2963 
Q 2534 3019 2420 3045 
Q 2306 3072 2169 3072 
Q 1681 3072 1420 2755 
Q 1159 2438 1159 1844 
L 1159 0 
L 581 0 
L 581 3500 
L 1159 3500 
L 1159 2956 
Q 1341 3275 1631 3429 
Q 1922 3584 2338 3584 
Q 2397 3584 2469 3576 
Q 2541 3569 2628 3553 
L 2631 2963 
z
" transform="scale(0.015625)"/>
        <path id="DejaVuSans-61" d="M 2194 1759 
Q 1497 1759 1228 1600 
Q 959 1441 959 1056 
Q 959 750 1161 570 
Q 1363 391 1709 391 
Q 2188 391 2477 730 
Q 2766 1069 2766 1631 
L 2766 1759 
L 2194 1759 
z
M 3341 1997 
L 3341 0 
L 2766 0 
L 2766 531 
Q 2569 213 2275 61 
Q 1981 -91 1556 -91 
Q 1019 -91 701 211 
Q 384 513 384 1019 
Q 384 1609 779 1909 
Q 1175 2209 1959 2209 
L 2766 2209 
L 2766 2266 
Q 2766 2663 2505 2880 
Q 2244 3097 1772 3097 
Q 1472 3097 1187 3025 
Q 903 2953 641 2809 
L 641 3341 
Q 956 3463 1253 3523 
Q 1550 3584 1831 3584 
Q 2591 3584 2966 3190 
Q 3341 2797 3341 1997 
z
" transform="scale(0.015625)"/>
        <path id="DejaVuSans-6c" d="M 603 4863 
L 1178 4863 
L 1178 0 
L 603 0 
L 603 4863 
z
" transform="scale(0.015625)"/>
       </defs>
       <use xlink:href="#DejaVuSans-43"/>
       <use xlink:href="#DejaVuSans-65" x="69.824219"/>
       <use xlink:href="#DejaVuSans-6e" x="131.347656"/>
       <use xlink:href="#DejaVuSans-74" x="194.726562"/>
       <use xlink:href="#DejaVuSans-72" x="233.935547"/>
       <use xlink:href="#DejaVuSans-61" x="275.048828"/>
       <use xlink:href="#DejaVuSans-6c" x="336.328125"/>
      </g>
     </g>
    </g>
    <g id="xtick_2">
     <g id="text_2">
      <!-- Portal -->
      <g style="fill: #262626" transform="translate(200.213594 262.437813)scale(0.14 -0.14)">
       <defs>
        <path id="DejaVuSans-50" d="M 1259 4147 
L 1259 2394 
L 2053 2394 
Q 2494 2394 2734 2622 
Q 2975 2850 2975 3272 
Q 2975 3691 2734 3919 
Q 2494 4147 2053 4147 
L 1259 4147 
z
M 628 4666 
L 2053 4666 
Q 2838 4666 3239 4311 
Q 3641 3956 3641 3272 
Q 3641 2581 3239 2228 
Q 2838 1875 2053 1875 
L 1259 1875 
L 1259 0 
L 628 0 
L 628 4666 
z
" transform="scale(0.015625)"/>
        <path id="DejaVuSans-6f" d="M 1959 3097 
Q 1497 3097 1228 2736 
Q 959 2375 959 1747 
Q 959 1119 1226 758 
Q 1494 397 1959 397 
Q 2419 397 2687 759 
Q 2956 1122 2956 1747 
Q 2956 2369 2687 2733 
Q 2419 3097 1959 3097 
z
M 1959 3584 
Q 2709 3584 3137 3096 
Q 3566 2609 3566 1747 
Q 3566 888 3137 398 
Q 2709 -91 1959 -91 
Q 1206 -91 779 398 
Q 353 888 353 1747 
Q 353 2609 779 3096 
Q 1206 3584 1959 3584 
z
" transform="scale(0.015625)"/>
       </defs>
       <use xlink:href="#DejaVuSans-50"/>
       <use xlink:href="#DejaVuSans-6f" x="56.677734"/>
       <use xlink:href="#DejaVuSans-72" x="117.859375"/>
       <use xlink:href="#DejaVuSans-74" x="158.972656"/>
       <use xlink:href="#DejaVuSans-61" x="198.181641"/>
       <use xlink:href="#DejaVuSans-6c" x="259.460938"/>
      </g>
     </g>
    </g>
    <g id="text_3">
     <!-- Zones -->
     <g style="fill: #262626" transform="translate(142.691875 279.987188)scale(0.14 -0.14)">
      <defs>
       <path id="DejaVuSans-5a" d="M 359 4666 
L 4025 4666 
L 4025 4184 
L 1075 531 
L 4097 531 
L 4097 0 
L 288 0 
L 288 481 
L 3238 4134 
L 359 4134 
L 359 4666 
z
" transform="scale(0.015625)"/>
       <path id="DejaVuSans-73" d="M 2834 3397 
L 2834 2853 
Q 2591 2978 2328 3040 
Q 2066 3103 1784 3103 
Q 1356 3103 1142 2972 
Q 928 2841 928 2578 
Q 928 2378 1081 2264 
Q 1234 2150 1697 2047 
L 1894 2003 
Q 2506 1872 2764 1633 
Q 3022 1394 3022 966 
Q 3022 478 2636 193 
Q 2250 -91 1575 -91 
Q 1294 -91 989 -36 
Q 684 19 347 128 
L 347 722 
Q 666 556 975 473 
Q 1284 391 1588 391 
Q 1994 391 2212 530 
Q 2431 669 2431 922 
Q 2431 1156 2273 1281 
Q 2116 1406 1581 1522 
L 1381 1569 
Q 847 1681 609 1914 
Q 372 2147 372 2553 
Q 372 3047 722 3315 
Q 1072 3584 1716 3584 
Q 2034 3584 2315 3537 
Q 2597 3491 2834 3397 
z
" transform="scale(0.015625)"/>
      </defs>
      <use xlink:href="#DejaVuSans-5a"/>
      <use xlink:href="#DejaVuSans-6f" x="68.505859"/>
      <use xlink:href="#DejaVuSans-6e" x="129.6875"/>
      <use xlink:href="#DejaVuSans-65" x="193.066406"/>
      <use xlink:href="#DejaVuSans-73" x="254.589844"/>
     </g>
    </g>
   </g>
   <g id="matplotlib.axis_2">
    <g id="ytick_1">
     <g id="line2d_1">
      <path d="M 51.84 244.419768 
L 276.48 244.419768 
" clip-path="url(#pce8fc12326)" style="fill: none; stroke: #ffffff; stroke-width: 0.8; stroke-linecap: round"/>
     </g>
     <g id="text_4">
      <!-- −0.5 -->
      <g style="fill: #262626" transform="translate(10.844062 249.738674)scale(0.14 -0.14)">
       <defs>
        <path id="DejaVuSans-2212" d="M 678 2272 
L 4684 2272 
L 4684 1741 
L 678 1741 
L 678 2272 
z
" transform="scale(0.015625)"/>
        <path id="DejaVuSans-30" d="M 2034 4250 
Q 1547 4250 1301 3770 
Q 1056 3291 1056 2328 
Q 1056 1369 1301 889 
Q 1547 409 2034 409 
Q 2525 409 2770 889 
Q 3016 1369 3016 2328 
Q 3016 3291 2770 3770 
Q 2525 4250 2034 4250 
z
M 2034 4750 
Q 2819 4750 3233 4129 
Q 3647 3509 3647 2328 
Q 3647 1150 3233 529 
Q 2819 -91 2034 -91 
Q 1250 -91 836 529 
Q 422 1150 422 2328 
Q 422 3509 836 4129 
Q 1250 4750 2034 4750 
z
" transform="scale(0.015625)"/>
        <path id="DejaVuSans-2e" d="M 684 794 
L 1344 794 
L 1344 0 
L 684 0 
L 684 794 
z
" transform="scale(0.015625)"/>
        <path id="DejaVuSans-35" d="M 691 4666 
L 3169 4666 
L 3169 4134 
L 1269 4134 
L 1269 2991 
Q 1406 3038 1543 3061 
Q 1681 3084 1819 3084 
Q 2600 3084 3056 2656 
Q 3513 2228 3513 1497 
Q 3513 744 3044 326 
Q 2575 -91 1722 -91 
Q 1428 -91 1123 -41 
Q 819 9 494 109 
L 494 744 
Q 775 591 1075 516 
Q 1375 441 1709 441 
Q 2250 441 2565 725 
Q 2881 1009 2881 1497 
Q 2881 1984 2565 2268 
Q 2250 2553 1709 2553 
Q 1456 2553 1204 2497 
Q 953 2441 691 2322 
L 691 4666 
z
" transform="scale(0.015625)"/>
       </defs>
       <use xlink:href="#DejaVuSans-2212"/>
       <use xlink:href="#DejaVuSans-30" x="83.789062"/>
       <use xlink:href="#DejaVuSans-2e" x="147.412109"/>
       <use xlink:href="#DejaVuSans-35" x="179.199219"/>
      </g>
     </g>
    </g>
    <g id="ytick_2">
     <g id="line2d_2">
      <path d="M 51.84 191.486917 
L 276.48 191.486917 
" clip-path="url(#pce8fc12326)" style="fill: none; stroke: #ffffff; stroke-width: 0.8; stroke-linecap: round"/>
     </g>
     <g id="text_5">
      <!-- 0.0 -->
      <g style="fill: #262626" transform="translate(22.575625 196.805824)scale(0.14 -0.14)">
       <use xlink:href="#DejaVuSans-30"/>
       <use xlink:href="#DejaVuSans-2e" x="63.623047"/>
       <use xlink:href="#DejaVuSans-30" x="95.410156"/>
      </g>
     </g>
    </g>
    <g id="ytick_3">
     <g id="line2d_3">
      <path d="M 51.84 138.554067 
L 276.48 138.554067 
" clip-path="url(#pce8fc12326)" style="fill: none; stroke: #ffffff; stroke-width: 0.8; stroke-linecap: round"/>
     </g>
     <g id="text_6">
      <!-- 0.5 -->
      <g style="fill: #262626" transform="translate(22.575625 143.872974)scale(0.14 -0.14)">
       <use xlink:href="#DejaVuSans-30"/>
       <use xlink:href="#DejaVuSans-2e" x="63.623047"/>
       <use xlink:href="#DejaVuSans-35" x="95.410156"/>
      </g>
     </g>
    </g>
    <g id="ytick_4">
     <g id="line2d_4">
      <path d="M 51.84 85.621217 
L 276.48 85.621217 
" clip-path="url(#pce8fc12326)" style="fill: none; stroke: #ffffff; stroke-width: 0.8; stroke-linecap: round"/>
     </g>
     <g id="text_7">
      <!-- 1.0 -->
      <g style="fill: #262626" transform="translate(22.575625 90.940123)scale(0.14 -0.14)">
       <defs>
        <path id="DejaVuSans-31" d="M 794 531 
L 1825 531 
L 1825 4091 
L 703 3866 
L 703 4441 
L 1819 4666 
L 2450 4666 
L 2450 531 
L 3481 531 
L 3481 0 
L 794 0 
L 794 531 
z
" transform="scale(0.015625)"/>
       </defs>
       <use xlink:href="#DejaVuSans-31"/>
       <use xlink:href="#DejaVuSans-2e" x="63.623047"/>
       <use xlink:href="#DejaVuSans-30" x="95.410156"/>
      </g>
     </g>
    </g>
    <g id="ytick_5">
     <g id="line2d_5">
      <path d="M 51.84 32.688367 
L 276.48 32.688367 
" clip-path="url(#pce8fc12326)" style="fill: none; stroke: #ffffff; stroke-width: 0.8; stroke-linecap: round"/>
     </g>
     <g id="text_8">
      <!-- 1.5 -->
      <g style="fill: #262626" transform="translate(22.575625 38.007273)scale(0.14 -0.14)">
       <use xlink:href="#DejaVuSans-31"/>
       <use xlink:href="#DejaVuSans-2e" x="63.623047"/>
       <use xlink:href="#DejaVuSans-35" x="95.410156"/>
      </g>
     </g>
    </g>
    <g id="text_9">
     <!-- pseudo-dose -->
     <g style="fill: #262626" transform="translate(3.9325 180.258438)rotate(-90)scale(0.14 -0.14)">
      <defs>
       <path id="DejaVuSans-70" d="M 1159 525 
L 1159 -1331 
L 581 -1331 
L 581 3500 
L 1159 3500 
L 1159 2969 
Q 1341 3281 1617 3432 
Q 1894 3584 2278 3584 
Q 2916 3584 3314 3078 
Q 3713 2572 3713 1747 
Q 3713 922 3314 415 
Q 2916 -91 2278 -91 
Q 1894 -91 1617 61 
Q 1341 213 1159 525 
z
M 3116 1747 
Q 3116 2381 2855 2742 
Q 2594 3103 2138 3103 
Q 1681 3103 1420 2742 
Q 1159 2381 1159 1747 
Q 1159 1113 1420 752 
Q 1681 391 2138 391 
Q 2594 391 2855 752 
Q 3116 1113 3116 1747 
z
" transform="scale(0.015625)"/>
       <path id="DejaVuSans-75" d="M 544 1381 
L 544 3500 
L 1119 3500 
L 1119 1403 
Q 1119 906 1312 657 
Q 1506 409 1894 409 
Q 2359 409 2629 706 
Q 2900 1003 2900 1516 
L 2900 3500 
L 3475 3500 
L 3475 0 
L 2900 0 
L 2900 538 
Q 2691 219 2414 64 
Q 2138 -91 1772 -91 
Q 1169 -91 856 284 
Q 544 659 544 1381 
z
M 1991 3584 
L 1991 3584 
z
" transform="scale(0.015625)"/>
       <path id="DejaVuSans-64" d="M 2906 2969 
L 2906 4863 
L 3481 4863 
L 3481 0 
L 2906 0 
L 2906 525 
Q 2725 213 2448 61 
Q 2172 -91 1784 -91 
Q 1150 -91 751 415 
Q 353 922 353 1747 
Q 353 2572 751 3078 
Q 1150 3584 1784 3584 
Q 2172 3584 2448 3432 
Q 2725 3281 2906 2969 
z
M 947 1747 
Q 947 1113 1208 752 
Q 1469 391 1925 391 
Q 2381 391 2643 752 
Q 2906 1113 2906 1747 
Q 2906 2381 2643 2742 
Q 2381 3103 1925 3103 
Q 1469 3103 1208 2742 
Q 947 2381 947 1747 
z
" transform="scale(0.015625)"/>
       <path id="DejaVuSans-2d" d="M 313 2009 
L 1997 2009 
L 1997 1497 
L 313 1497 
L 313 2009 
z
" transform="scale(0.015625)"/>
      </defs>
      <use xlink:href="#DejaVuSans-70"/>
      <use xlink:href="#DejaVuSans-73" x="63.476562"/>
      <use xlink:href="#DejaVuSans-65" x="115.576172"/>
      <use xlink:href="#DejaVuSans-75" x="177.099609"/>
      <use xlink:href="#DejaVuSans-64" x="240.478516"/>
      <use xlink:href="#DejaVuSans-6f" x="303.955078"/>
      <use xlink:href="#DejaVuSans-2d" x="367.011719"/>
      <use xlink:href="#DejaVuSans-64" x="403.095703"/>
      <use xlink:href="#DejaVuSans-6f" x="466.572266"/>
      <use xlink:href="#DejaVuSans-73" x="527.753906"/>
      <use xlink:href="#DejaVuSans-65" x="579.853516"/>
     </g>
    </g>
   </g>
   <g id="PolyCollection_1">
    <defs>
     <path id="me8ea680963" d="M 108.0037 -57.086421 
L 107.9963 -57.086421 
L 107.988895 -59.056567 
L 107.970873 -61.026713 
L 107.932189 -62.99686 
L 107.857644 -64.967006 
L 107.726333 -66.937152 
L 107.510831 -68.907299 
L 107.174975 -70.877445 
L 106.67056 -72.847591 
L 105.936279 -74.817738 
L 104.902947 -76.787884 
L 103.505339 -78.75803 
L 101.695898 -80.728177 
L 99.453683 -82.698323 
L 96.787319 -84.66847 
L 93.739207 -86.638616 
L 90.39465 -88.608762 
L 86.885891 -90.578909 
L 83.382254 -92.549055 
L 80.073017 -94.519201 
L 77.152621 -96.489348 
L 74.808082 -98.459494 
L 73.201301 -100.42964 
L 72.43762 -102.399787 
L 72.528152 -104.369933 
L 73.379323 -106.340079 
L 74.829399 -108.310226 
L 76.701628 -110.280372 
L 78.835042 -112.250518 
L 81.098598 -114.220665 
L 83.410815 -116.190811 
L 85.752243 -118.160957 
L 88.141155 -120.131104 
L 90.577575 -122.10125 
L 92.999212 -124.071396 
L 95.286508 -126.041543 
L 97.309968 -128.011689 
L 98.978221 -129.981836 
L 100.255387 -131.951982 
L 101.151292 -133.922128 
L 101.703439 -135.892275 
L 101.962112 -137.862421 
L 101.983173 -139.832567 
L 101.829084 -141.802714 
L 101.571991 -143.77286 
L 101.289897 -145.743006 
L 101.05089 -147.713153 
L 100.889298 -149.683299 
L 100.791359 -151.653445 
L 100.711669 -153.623592 
L 100.617195 -155.593738 
L 100.523249 -157.563884 
L 100.48933 -159.534031 
L 100.583124 -161.504177 
L 100.847237 -163.474323 
L 101.287681 -165.44447 
L 101.877939 -167.414616 
L 102.568607 -169.384762 
L 103.299023 -171.354909 
L 104.008461 -173.325055 
L 104.645734 -175.295202 
L 105.178122 -177.265348 
L 105.596244 -179.235494 
L 105.908005 -181.205641 
L 106.124421 -183.175787 
L 106.252131 -185.145933 
L 106.299614 -187.11608 
L 106.284153 -189.086226 
L 106.226048 -191.056372 
L 106.137809 -193.026519 
L 106.025244 -194.996665 
L 105.899394 -196.966811 
L 105.780927 -198.936958 
L 105.688295 -200.907104 
L 105.623766 -202.87725 
L 105.57517 -204.847397 
L 105.531833 -206.817543 
L 105.497161 -208.787689 
L 105.486538 -210.757836 
L 105.516396 -212.727982 
L 105.596647 -214.698128 
L 105.730144 -216.668275 
L 105.914295 -218.638421 
L 106.141024 -220.608568 
L 106.39634 -222.578714 
L 106.661721 -224.54886 
L 106.91721 -226.519007 
L 107.145503 -228.489153 
L 107.336673 -230.459299 
L 107.490914 -232.429446 
L 107.615677 -234.399592 
L 107.718728 -236.369738 
L 107.803581 -238.339885 
L 107.870519 -240.310031 
L 107.919947 -242.280177 
L 107.953947 -244.250324 
L 107.97568 -246.22047 
L 107.988429 -248.190616 
L 107.995139 -250.160763 
L 107.998231 -252.130909 
L 108.001769 -252.130909 
L 108.001769 -252.130909 
L 108.004861 -250.160763 
L 108.011571 -248.190616 
L 108.02432 -246.22047 
L 108.046053 -244.250324 
L 108.080053 -242.280177 
L 108.129481 -240.310031 
L 108.196419 -238.339885 
L 108.281272 -236.369738 
L 108.384323 -234.399592 
L 108.509086 -232.429446 
L 108.663327 -230.459299 
L 108.854497 -228.489153 
L 109.08279 -226.519007 
L 109.338279 -224.54886 
L 109.60366 -222.578714 
L 109.858976 -220.608568 
L 110.085705 -218.638421 
L 110.269856 -216.668275 
L 110.403353 -214.698128 
L 110.483604 -212.727982 
L 110.513462 -210.757836 
L 110.502839 -208.787689 
L 110.468167 -206.817543 
L 110.42483 -204.847397 
L 110.376234 -202.87725 
L 110.311705 -200.907104 
L 110.219073 -198.936958 
L 110.100606 -196.966811 
L 109.974756 -194.996665 
L 109.862191 -193.026519 
L 109.773952 -191.056372 
L 109.715847 -189.086226 
L 109.700386 -187.11608 
L 109.747869 -185.145933 
L 109.875579 -183.175787 
L 110.091995 -181.205641 
L 110.403756 -179.235494 
L 110.821878 -177.265348 
L 111.354266 -175.295202 
L 111.991539 -173.325055 
L 112.700977 -171.354909 
L 113.431393 -169.384762 
L 114.122061 -167.414616 
L 114.712319 -165.44447 
L 115.152763 -163.474323 
L 115.416876 -161.504177 
L 115.51067 -159.534031 
L 115.476751 -157.563884 
L 115.382805 -155.593738 
L 115.288331 -153.623592 
L 115.208641 -151.653445 
L 115.110702 -149.683299 
L 114.94911 -147.713153 
L 114.710103 -145.743006 
L 114.428009 -143.77286 
L 114.170916 -141.802714 
L 114.016827 -139.832567 
L 114.037888 -137.862421 
L 114.296561 -135.892275 
L 114.848708 -133.922128 
L 115.744613 -131.951982 
L 117.021779 -129.981836 
L 118.690032 -128.011689 
L 120.713492 -126.041543 
L 123.000788 -124.071396 
L 125.422425 -122.10125 
L 127.858845 -120.131104 
L 130.247757 -118.160957 
L 132.589185 -116.190811 
L 134.901402 -114.220665 
L 137.164958 -112.250518 
L 139.298372 -110.280372 
L 141.170601 -108.310226 
L 142.620677 -106.340079 
L 143.471848 -104.369933 
L 143.56238 -102.399787 
L 142.798699 -100.42964 
L 141.191918 -98.459494 
L 138.847379 -96.489348 
L 135.926983 -94.519201 
L 132.617746 -92.549055 
L 129.114109 -90.578909 
L 125.60535 -88.608762 
L 122.260793 -86.638616 
L 119.212681 -84.66847 
L 116.546317 -82.698323 
L 114.304102 -80.728177 
L 112.494661 -78.75803 
L 111.097053 -76.787884 
L 110.063721 -74.817738 
L 109.32944 -72.847591 
L 108.825025 -70.877445 
L 108.489169 -68.907299 
L 108.273667 -66.937152 
L 108.142356 -64.967006 
L 108.067811 -62.99686 
L 108.029127 -61.026713 
L 108.011105 -59.056567 
L 108.0037 -57.086421 
z
" style="stroke: #3f3f3f; stroke-width: 1.5"/>
    </defs>
    <g clip-path="url(#pce8fc12326)">
     <use xlink:href="#me8ea680963" x="0" y="288" style="fill: #3274a1; stroke: #3f3f3f; stroke-width: 1.5"/>
    </g>
   </g>
   <g id="PolyCollection_2">
    <defs>
     <path id="me17e051e77" d="M 220.321956 -53.149091 
L 220.318044 -53.149091 
L 220.31006 -55.068413 
L 220.287548 -56.987736 
L 220.243367 -58.907058 
L 220.171159 -60.826381 
L 220.050745 -62.745703 
L 219.830639 -64.665026 
L 219.443451 -66.584348 
L 218.833775 -68.50367 
L 217.952811 -70.422993 
L 216.69001 -72.342315 
L 214.883677 -74.261638 
L 212.476251 -76.18096 
L 209.482346 -78.100283 
L 205.871391 -80.019605 
L 201.652369 -81.938927 
L 197.008434 -83.85825 
L 192.273548 -85.777572 
L 187.742051 -87.696895 
L 183.554697 -89.616217 
L 179.891483 -91.53554 
L 177.150807 -93.454862 
L 175.672853 -95.374184 
L 175.392 -97.293507 
L 176.170708 -99.212829 
L 178.049481 -101.132152 
L 180.788949 -103.051474 
L 183.859425 -104.970797 
L 186.96886 -106.890119 
L 190.210993 -108.809441 
L 193.708368 -110.728764 
L 197.318153 -112.648086 
L 200.829494 -114.567409 
L 204.105031 -116.486731 
L 207.03873 -118.406054 
L 209.56882 -120.325376 
L 211.586331 -122.244699 
L 212.92492 -124.164021 
L 213.57428 -126.083343 
L 213.722832 -128.002666 
L 213.655133 -129.921988 
L 213.631993 -131.841311 
L 213.714857 -133.760633 
L 213.856752 -135.679956 
L 214.091657 -137.599278 
L 214.425826 -139.5186 
L 214.774147 -141.437923 
L 215.103015 -143.357245 
L 215.427285 -145.276568 
L 215.739336 -147.19589 
L 216.05031 -149.115213 
L 216.403528 -151.034535 
L 216.803396 -152.953857 
L 217.220602 -154.87318 
L 217.577887 -156.792502 
L 217.83741 -158.711825 
L 218.094549 -160.631147 
L 218.410691 -162.55047 
L 218.738271 -164.469792 
L 219.019523 -166.389115 
L 219.226621 -168.308437 
L 219.357672 -170.227759 
L 219.430431 -172.147082 
L 219.452645 -174.066404 
L 219.43484 -175.985727 
L 219.422246 -177.905049 
L 219.463025 -179.824372 
L 219.554842 -181.743694 
L 219.638906 -183.663016 
L 219.674477 -185.582339 
L 219.681035 -187.501661 
L 219.678076 -189.420984 
L 219.670218 -191.340306 
L 219.677851 -193.259629 
L 219.703617 -195.178951 
L 219.728797 -197.098273 
L 219.758236 -199.017596 
L 219.805012 -200.936918 
L 219.846811 -202.856241 
L 219.867892 -204.775563 
L 219.89514 -206.694886 
L 219.942092 -208.614208 
L 219.998847 -210.53353 
L 220.048013 -212.452853 
L 220.080067 -214.372175 
L 220.113757 -216.291498 
L 220.167025 -218.21082 
L 220.223771 -220.130143 
L 220.2621 -222.049465 
L 220.2857 -223.968788 
L 220.30091 -225.88811 
L 220.306332 -227.807432 
L 220.30754 -229.726755 
L 220.310769 -231.646077 
L 220.314845 -233.5654 
L 220.31634 -235.484722 
L 220.315493 -237.404045 
L 220.31574 -239.323367 
L 220.317768 -241.242689 
L 220.319378 -243.162012 
L 220.320622 -243.162012 
L 220.320622 -243.162012 
L 220.322232 -241.242689 
L 220.32426 -239.323367 
L 220.324507 -237.404045 
L 220.32366 -235.484722 
L 220.325155 -233.5654 
L 220.329231 -231.646077 
L 220.33246 -229.726755 
L 220.333668 -227.807432 
L 220.33909 -225.88811 
L 220.3543 -223.968788 
L 220.3779 -222.049465 
L 220.416229 -220.130143 
L 220.472975 -218.21082 
L 220.526243 -216.291498 
L 220.559933 -214.372175 
L 220.591987 -212.452853 
L 220.641153 -210.53353 
L 220.697908 -208.614208 
L 220.74486 -206.694886 
L 220.772108 -204.775563 
L 220.793189 -202.856241 
L 220.834988 -200.936918 
L 220.881764 -199.017596 
L 220.911203 -197.098273 
L 220.936383 -195.178951 
L 220.962149 -193.259629 
L 220.969782 -191.340306 
L 220.961924 -189.420984 
L 220.958965 -187.501661 
L 220.965523 -185.582339 
L 221.001094 -183.663016 
L 221.085158 -181.743694 
L 221.176975 -179.824372 
L 221.217754 -177.905049 
L 221.20516 -175.985727 
L 221.187355 -174.066404 
L 221.209569 -172.147082 
L 221.282328 -170.227759 
L 221.413379 -168.308437 
L 221.620477 -166.389115 
L 221.901729 -164.469792 
L 222.229309 -162.55047 
L 222.545451 -160.631147 
L 222.80259 -158.711825 
L 223.062113 -156.792502 
L 223.419398 -154.87318 
L 223.836604 -152.953857 
L 224.236472 -151.034535 
L 224.58969 -149.115213 
L 224.900664 -147.19589 
L 225.212715 -145.276568 
L 225.536985 -143.357245 
L 225.865853 -141.437923 
L 226.214174 -139.5186 
L 226.548343 -137.599278 
L 226.783248 -135.679956 
L 226.925143 -133.760633 
L 227.008007 -131.841311 
L 226.984867 -129.921988 
L 226.917168 -128.002666 
L 227.06572 -126.083343 
L 227.71508 -124.164021 
L 229.053669 -122.244699 
L 231.07118 -120.325376 
L 233.60127 -118.406054 
L 236.534969 -116.486731 
L 239.810506 -114.567409 
L 243.321847 -112.648086 
L 246.931632 -110.728764 
L 250.429007 -108.809441 
L 253.67114 -106.890119 
L 256.780575 -104.970797 
L 259.851051 -103.051474 
L 262.590519 -101.132152 
L 264.469292 -99.212829 
L 265.248 -97.293507 
L 264.967147 -95.374184 
L 263.489193 -93.454862 
L 260.748517 -91.53554 
L 257.085303 -89.616217 
L 252.897949 -87.696895 
L 248.366452 -85.777572 
L 243.631566 -83.85825 
L 238.987631 -81.938927 
L 234.768609 -80.019605 
L 231.157654 -78.100283 
L 228.163749 -76.18096 
L 225.756323 -74.261638 
L 223.94999 -72.342315 
L 222.687189 -70.422993 
L 221.806225 -68.50367 
L 221.196549 -66.584348 
L 220.809361 -64.665026 
L 220.589255 -62.745703 
L 220.468841 -60.826381 
L 220.396633 -58.907058 
L 220.352452 -56.987736 
L 220.32994 -55.068413 
L 220.321956 -53.149091 
z
" style="stroke: #3f3f3f; stroke-width: 1.5"/>
    </defs>
    <g clip-path="url(#pce8fc12326)">
     <use xlink:href="#me17e051e77" x="0" y="288" style="fill: #e1812c; stroke: #3f3f3f; stroke-width: 1.5"/>
    </g>
   </g>
   <g id="line2d_6">
    <path d="M 108 222.277239 
L 108 109.170053 
" clip-path="url(#pce8fc12326)" style="fill: none; stroke: #3f3f3f; stroke-width: 1.5; stroke-linecap: round"/>
   </g>
   <g id="line2d_7">
    <path d="M 108 188.702845 
L 108 156.883783 
" clip-path="url(#pce8fc12326)" style="fill: none; stroke: #3f3f3f; stroke-width: 4.5; stroke-linecap: round"/>
   </g>
   <g id="line2d_8">
    <path d="M 220.32 226.8948 
L 220.32 145.29632 
" clip-path="url(#pce8fc12326)" style="fill: none; stroke: #3f3f3f; stroke-width: 1.5; stroke-linecap: round"/>
   </g>
   <g id="line2d_9">
    <path d="M 220.32 196.350145 
L 220.32 175.92118 
" clip-path="url(#pce8fc12326)" style="fill: none; stroke: #3f3f3f; stroke-width: 4.5; stroke-linecap: round"/>
   </g>
   <g id="line2d_10">
    <path d="M 108 19.3536 
L 108 14.976 
L 220.32 14.976 
L 220.32 19.3536 
" style="fill: none; stroke: #333333; stroke-width: 1.5; stroke-linecap: round"/>
   </g>
   <g id="patch_3">
    <path d="M 51.84 244.8 
L 51.84 25.92 
" style="fill: none; stroke: #ffffff; stroke-width: 0.8; stroke-linejoin: miter; stroke-linecap: square"/>
   </g>
   <g id="patch_4">
    <path d="M 276.48 244.8 
L 276.48 25.92 
" style="fill: none; stroke: #ffffff; stroke-width: 0.8; stroke-linejoin: miter; stroke-linecap: square"/>
   </g>
   <g id="patch_5">
    <path d="M 51.84 244.8 
L 276.48 244.8 
" style="fill: none; stroke: #ffffff; stroke-width: 0.8; stroke-linejoin: miter; stroke-linecap: square"/>
   </g>
   <g id="patch_6">
    <path d="M 51.84 25.92 
L 276.48 25.92 
" style="fill: none; stroke: #ffffff; stroke-width: 0.8; stroke-linejoin: miter; stroke-linecap: square"/>
   </g>
   <g id="PathCollection_1">
    <defs>
     <path id="mcac852cd6a" d="M 0 1.5 
C 0.397805 1.5 0.77937 1.341951 1.06066 1.06066 
C 1.341951 0.77937 1.5 0.397805 1.5 0 
C 1.5 -0.397805 1.341951 -0.77937 1.06066 -1.06066 
C 0.77937 -1.341951 0.397805 -1.5 0 -1.5 
C -0.397805 -1.5 -0.77937 -1.341951 -1.06066 -1.06066 
C -1.341951 -0.77937 -1.5 -0.397805 -1.5 0 
C -1.5 0.397805 -1.341951 0.77937 -1.06066 1.06066 
C -0.77937 1.341951 -0.397805 1.5 0 1.5 
z
" style="stroke: #3f3f3f"/>
    </defs>
    <g clip-path="url(#pce8fc12326)">
     <use xlink:href="#mcac852cd6a" x="108" y="177.760635" style="fill: #ffffff; stroke: #3f3f3f"/>
    </g>
   </g>
   <g id="PathCollection_2">
    <g clip-path="url(#pce8fc12326)">
     <use xlink:href="#mcac852cd6a" x="220.32" y="187.508977" style="fill: #ffffff; stroke: #3f3f3f"/>
    </g>
   </g>
   <g id="text_10">
    <!-- **** -->
    <g style="fill: #262626" transform="translate(150.16 11.064437)scale(0.14 -0.14)">
     <defs>
      <path id="DejaVuSans-2a" d="M 3009 3897 
L 1888 3291 
L 3009 2681 
L 2828 2375 
L 1778 3009 
L 1778 1831 
L 1422 1831 
L 1422 3009 
L 372 2375 
L 191 2681 
L 1313 3291 
L 191 3897 
L 372 4206 
L 1422 3572 
L 1422 4750 
L 1778 4750 
L 1778 3572 
L 2828 4206 
L 3009 3897 
z
" transform="scale(0.015625)"/>
     </defs>
     <use xlink:href="#DejaVuSans-2a"/>
     <use xlink:href="#DejaVuSans-2a" x="50"/>
     <use xlink:href="#DejaVuSans-2a" x="100"/>
     <use xlink:href="#DejaVuSans-2a" x="150"/>
    </g>
   </g>
  </g>
 </g>
 <defs>
  <clipPath id="pce8fc12326">
   <rect x="51.84" y="25.92" width="224.64" height="218.88"/>
  </clipPath>
 </defs>
</svg>
